<?xml version="1.0" encoding="UTF-8"?>
<svg id="Layer_2" data-name="Layer 2" xmlns="http://www.w3.org/2000/svg" xmlns:xlink="http://www.w3.org/1999/xlink" viewBox="0 0 106.94 143.09">
  <defs>
    <style>
      .cls-1 {
        fill: #afd9d3;
      }

      .cls-2 {
        fill: #7aa4d3;
      }

      .cls-3 {
        fill: #223971;
      }

      .cls-4 {
        fill: #cfd7e5;
      }

      .cls-5 {
        fill: #808083;
      }

      .cls-6 {
        fill: #d3e1f1;
      }

      .cls-7 {
        fill: #6e6f72;
      }

      .cls-8 {
        fill: #919295;
      }

      .cls-9 {
        fill: #9eaeca;
      }

      .cls-10 {
        fill: #d8ede9;
      }

      .cls-11 {
        fill: #a6c2e1;
      }

      .cls-12 {
        fill: #2ea290;
      }

      .cls-13 {
        clip-path: url(#clippath);
      }

      .cls-14 {
        fill: none;
      }

      .cls-15 {
        fill: #a8a7aa;
      }

      .cls-16 {
        fill: #6c86b1;
      }

      .cls-17 {
        fill: #86c8bc;
      }

      .cls-18 {
        fill: #2f6eb5;
      }

      .cls-19 {
        fill: #bbbcbe;
      }
    </style>
    <clipPath id="clippath">
      <path class="cls-14" d="M0,55.1v54.45c0,2.26,1.2,4.34,3.16,5.47l47.15,27.22c1.95,1.13,4.36,1.13,6.32,0l47.15-27.22c1.95-1.13,3.16-3.21,3.16-5.47V51.45L56.63,22.4c-1.95-1.13-4.36-1.13-6.32,0L3.16,49.63C1.2,50.76,0,52.84,0,55.1Z"/>
    </clipPath>
  </defs>
  <g id="Layer_1-2" data-name="Layer 1">
    <g>
      <polygon class="cls-1" points="89.12 41.16 71.29 30.87 71.29 10.29 89.12 20.58 89.12 41.16"/>
      <path class="cls-10" d="M106.94,30.87l-17.82-10.29V0l14.66,8.47c1.95,1.13,3.16,3.21,3.16,5.47V30.87Z"/>
      <g class="cls-13">
        <polygon class="cls-8" points="0 113.19 53.47 144.07 106.94 113.19 71.29 92.61 53.47 102.9 35.65 92.61 0 113.19"/>
        <polygon class="cls-7" points="53.47 102.9 53.47 123.49 35.65 113.19 35.65 133.78 0 113.19 35.65 92.61 53.47 102.9"/>
        <polygon class="cls-3" points="53.47 61.74 0 92.61 0 113.19 53.47 82.32 53.47 61.74"/>
        <polygon class="cls-12" points="53.47 41.16 0 72.03 0 51.45 53.47 20.58 53.47 41.16"/>
        <polygon class="cls-16" points="71.29 92.61 53.47 82.32 53.47 61.74 71.29 72.03 71.29 92.61"/>
        <polygon class="cls-9" points="89.12 102.9 71.29 92.61 71.29 72.03 89.12 82.32 89.12 102.9"/>
        <polygon class="cls-4" points="106.94 113.19 89.12 102.9 89.12 82.32 106.94 92.61 106.94 113.19"/>
        <polygon class="cls-18" points="53.47 41.16 0 72.03 0 92.61 53.47 61.74 53.47 41.16"/>
        <polygon class="cls-2" points="71.29 72.03 53.47 61.74 53.47 41.16 71.29 51.45 71.29 72.03"/>
        <polygon class="cls-17" points="71.29 51.45 53.47 41.16 53.47 20.58 71.29 30.87 71.29 51.45"/>
        <polygon class="cls-11" points="89.12 82.32 71.29 72.03 71.29 51.45 89.12 61.74 89.12 82.32"/>
        <polygon class="cls-6" points="106.94 72.03 89.12 61.74 89.12 41.16 106.94 51.45 106.94 72.03"/>
        <polygon class="cls-19" points="71.29 92.61 71.29 113.19 89.12 102.9 71.29 92.61"/>
        <polygon class="cls-8" points="53.47 102.9 53.47 123.49 71.29 113.19 53.47 102.9"/>
        <polygon class="cls-5" points="35.65 113.19 35.65 133.78 53.47 144.07 53.47 123.49 35.65 113.19"/>
        <polygon class="cls-15" points="53.47 123.49 53.47 144.07 71.29 133.78 71.29 113.19 53.47 123.49"/>
        <polygon class="cls-7" points="89.12 102.9 89.12 123.49 106.94 113.19 89.12 102.9"/>
        <polygon class="cls-8" points="71.29 113.19 71.29 133.78 89.12 123.49 71.29 113.19"/>
        <polygon class="cls-15" points="53.47 102.9 71.29 113.19 71.29 92.61 53.47 102.9"/>
        <polygon class="cls-5" points="89.12 123.49 89.12 102.9 71.29 113.19 89.12 123.49"/>
      </g>
    </g>
  </g>
</svg>