<?xml version="1.0" standalone="no"?>
<!DOCTYPE svg PUBLIC "-//W3C//DTD SVG 20010904//EN"
 "http://www.w3.org/TR/2001/REC-SVG-20010904/DTD/svg10.dtd">
<svg version="1.0" xmlns="http://www.w3.org/2000/svg"
 width="1144.000000pt" height="1144.000000pt" viewBox="0 0 1144.000000 1144.000000"
 preserveAspectRatio="xMidYMid meet">
<metadata>
Created by potrace 1.14, written by Peter Selinger 2001-2017
</metadata>
<g transform="translate(0.000000,1144.000000) scale(0.100000,-0.100000)"
fill="#000000" stroke="none">
<path d="M8575 10628 c0 -445 -2 -814 -6 -819 -3 -5 -35 9 -72 31 -36 22 -71
40 -76 40 -6 0 -11 5 -11 11 0 5 -4 7 -10 4 -5 -3 -10 -2 -10 3 0 5 -22 19
-50 32 -27 13 -50 27 -50 31 0 4 -10 11 -22 15 -11 3 -54 26 -93 50 -40 24
-78 44 -84 44 -6 0 -11 4 -11 9 0 5 -8 11 -17 14 -18 6 -73 37 -83 47 -3 3
-23 14 -45 26 -44 23 -42 22 -270 154 -88 51 -180 104 -205 118 -25 14 -62 36
-82 49 -21 12 -40 23 -43 23 -3 0 -31 16 -61 35 -30 19 -58 35 -63 35 -5 0
-14 7 -21 15 -7 8 -19 15 -26 15 -12 0 -14 -129 -14 -815 0 -515 -4 -815 -10
-815 -5 0 -50 25 -101 55 -50 30 -94 55 -98 55 -3 0 -22 11 -41 23 -19 13 -55
35 -80 49 -25 14 -63 35 -84 47 -59 34 -340 197 -434 252 -45 27 -84 49 -86
49 -2 0 -60 33 -127 73 -155 91 -190 107 -260 122 -52 11 -154 12 -209 2 -49
-9 -117 -42 -270 -130 -85 -49 -166 -97 -180 -105 -14 -9 -27 -17 -30 -17 -3
0 -16 -8 -30 -17 -43 -27 -289 -168 -295 -168 -2 0 -36 -20 -74 -45 -38 -25
-72 -45 -74 -45 -3 0 -72 -39 -154 -87 -81 -47 -157 -91 -168 -97 -11 -6 -71
-41 -132 -76 -62 -36 -125 -72 -140 -80 -16 -9 -50 -29 -78 -45 -27 -17 -62
-37 -76 -45 -59 -34 -253 -146 -278 -161 -16 -9 -48 -28 -72 -41 -24 -13 -55
-31 -69 -39 -32 -21 -270 -159 -335 -194 -28 -16 -53 -32 -56 -37 -3 -6 -9 -9
-13 -8 -6 1 -114 -60 -191 -107 -11 -7 -27 -15 -35 -20 -8 -4 -69 -38 -135
-76 -130 -76 -166 -97 -235 -135 -25 -13 -49 -28 -55 -32 -5 -5 -86 -52 -180
-106 -93 -53 -186 -106 -205 -117 -19 -11 -60 -34 -90 -51 -30 -16 -57 -33
-60 -36 -3 -4 -18 -13 -35 -22 -32 -16 -60 -32 -165 -93 -73 -44 -177 -144
-186 -180 -3 -14 -10 -25 -15 -25 -5 0 -9 -4 -9 -9 0 -5 -7 -26 -17 -47 -9
-22 -19 -48 -21 -59 -3 -11 -7 -1032 -9 -2270 -2 -1726 0 -2263 9 -2305 6 -30
12 -57 13 -60 0 -3 9 -23 20 -45 38 -79 97 -154 153 -194 44 -31 322 -191 332
-191 5 0 10 -4 12 -8 2 -5 28 -22 58 -39 58 -32 218 -123 260 -148 34 -20 233
-135 278 -161 61 -34 115 -66 147 -85 17 -11 37 -22 45 -26 16 -8 206 -118
230 -133 8 -6 22 -13 30 -17 8 -3 39 -21 68 -40 29 -18 54 -33 57 -33 2 0 54
-29 115 -65 61 -36 113 -65 116 -65 3 0 10 -5 17 -10 7 -6 53 -34 102 -62 128
-73 139 -79 250 -143 55 -32 114 -66 130 -75 89 -51 262 -151 275 -159 8 -6
47 -28 86 -50 40 -22 165 -95 278 -161 113 -66 208 -120 211 -120 3 0 24 -12
48 -27 23 -15 51 -33 62 -39 85 -47 263 -150 325 -188 19 -11 37 -21 40 -21 3
0 19 -9 35 -19 17 -11 47 -30 67 -43 21 -12 40 -23 42 -23 3 0 39 -20 81 -45
42 -24 99 -52 128 -60 118 -37 255 -28 358 21 71 35 209 113 232 132 9 8 17
11 17 6 0 -5 4 -4 8 2 4 6 21 17 37 26 17 8 112 63 212 121 101 59 187 107
193 107 5 0 10 5 10 10 0 6 5 10 10 10 6 0 43 20 83 44 39 24 92 54 117 68 25
14 86 49 135 78 50 29 115 66 145 83 30 16 71 40 90 52 19 12 85 51 145 85 61
34 153 88 205 119 52 30 97 56 100 56 3 0 19 9 35 19 17 11 47 30 67 43 21 12
42 23 47 23 5 0 16 6 23 13 8 6 27 19 43 28 78 41 120 64 125 69 7 7 31 21
125 75 44 25 100 57 125 71 165 96 232 134 238 134 3 0 13 6 21 14 9 8 39 26
66 40 28 15 57 31 65 36 61 38 151 90 154 90 2 0 34 18 71 41 37 22 83 50 103
61 149 83 398 227 449 259 34 22 65 39 68 39 6 0 148 83 250 146 39 24 86 59
106 77 37 36 86 106 81 120 -1 4 2 7 7 7 8 0 18 19 26 50 1 3 4 12 7 20 25 69
28 132 28 807 0 672 -1 714 -17 720 -10 4 -62 33 -116 65 -53 32 -102 58 -107
58 -6 0 -10 4 -10 9 0 5 -8 11 -17 14 -10 4 -38 18 -63 33 -25 15 -74 44 -110
64 -36 20 -121 70 -190 110 -69 40 -145 84 -170 98 -25 13 -49 28 -55 32 -5 4
-31 19 -56 33 -75 41 -94 52 -99 57 -3 3 -31 19 -62 35 -32 17 -58 33 -58 38
0 4 -5 7 -10 7 -11 0 -241 130 -250 141 -3 3 -16 10 -29 14 -13 4 -20 10 -14
14 5 3 9 336 8 819 0 711 -2 815 -15 823 -84 52 -239 141 -252 146 -10 3 -18
10 -18 16 0 6 -3 8 -6 4 -3 -3 -29 9 -58 26 -28 18 -60 37 -71 44 -11 7 -44
25 -72 40 -29 15 -53 31 -53 35 0 4 -5 8 -10 8 -6 0 -81 41 -168 92 -86 50
-182 105 -212 121 -30 17 -66 38 -80 47 -14 9 -32 20 -40 23 -8 4 -31 17 -50
28 -19 12 -98 57 -175 102 -77 44 -141 81 -143 82 -4 3 -2 1638 3 1643 2 2 16
-5 31 -17 15 -11 33 -21 40 -21 8 0 14 -3 14 -7 0 -5 10 -13 23 -18 36 -17
112 -59 117 -66 3 -3 37 -23 75 -44 39 -20 75 -41 80 -45 6 -4 30 -19 55 -32
25 -14 101 -58 170 -98 69 -40 141 -81 160 -92 19 -11 64 -37 100 -58 68 -40
128 -74 170 -97 14 -8 39 -23 55 -33 17 -11 37 -23 45 -27 42 -20 156 -88 162
-97 5 -7 8 -7 8 -1 0 7 3 7 8 0 4 -6 30 -22 57 -37 l50 -27 0 820 c0 450 2
819 4 819 9 0 256 -145 259 -152 2 -4 9 -8 14 -8 6 0 52 -24 102 -54 79 -47
131 -76 211 -120 11 -6 22 -14 25 -17 3 -4 28 -18 55 -33 28 -14 64 -34 80
-44 41 -24 144 -84 176 -102 355 -203 446 -256 457 -267 7 -7 20 -13 28 -13
13 0 14 93 12 728 l-3 727 -24 60 c-48 119 -128 212 -241 279 -25 15 -53 29
-62 33 -10 3 -18 9 -18 14 0 5 -4 9 -9 9 -5 0 -65 32 -133 71 -67 39 -143 83
-168 97 -25 13 -49 28 -55 32 -5 4 -32 20 -60 36 -79 43 -106 59 -165 94 -30
18 -80 47 -110 63 -30 17 -57 33 -60 37 -3 3 -21 14 -40 23 -19 10 -53 28 -75
42 -22 13 -51 30 -65 38 -14 8 -50 28 -80 45 l-55 30 0 -810z m-2784 -5811 c3
-5 10 -9 15 -9 5 -1 18 -6 29 -13 62 -38 147 -85 156 -85 5 0 9 -4 9 -8 0 -4
12 -13 28 -20 15 -7 36 -18 47 -25 11 -6 52 -30 90 -51 39 -22 72 -42 75 -45
3 -3 25 -16 50 -29 25 -13 70 -39 100 -57 30 -19 69 -41 85 -49 17 -8 48 -26
70 -40 22 -14 51 -31 65 -39 36 -20 88 -50 140 -81 25 -15 53 -29 63 -33 9 -3
17 -9 17 -14 0 -5 4 -9 9 -9 8 0 167 -88 228 -126 13 -8 26 -15 30 -15 5 0 15
-7 24 -15 9 -8 19 -11 22 -7 4 3 7 2 7 -3 -1 -10 -143 -94 -160 -94 -5 0 -10
-3 -10 -7 0 -5 -10 -13 -23 -19 -31 -15 -111 -60 -186 -106 -34 -21 -65 -38
-67 -38 -2 0 -44 -25 -95 -55 -50 -30 -93 -55 -94 -55 -2 0 -333 -190 -365
-209 -20 -13 -324 -188 -379 -219 l-45 -25 -45 24 c-26 13 -48 26 -51 29 -3 3
-14 10 -25 16 -80 43 -124 69 -147 85 -14 11 -29 19 -33 19 -3 0 -44 23 -91
50 -47 28 -89 50 -93 50 -5 0 -11 3 -13 8 -2 6 -193 118 -288 169 -14 8 -38
23 -55 33 -16 11 -37 23 -45 27 -8 4 -75 42 -149 85 -73 43 -135 78 -137 78
-2 0 -32 18 -66 40 -35 22 -69 40 -75 40 -7 0 -13 5 -13 10 0 6 -6 10 -14 10
-7 0 -19 7 -26 15 -7 8 -15 13 -19 11 -3 -2 -14 1 -23 8 -16 12 -14 15 17 32
19 10 108 61 197 113 90 52 201 116 248 143 47 27 92 53 100 58 66 42 223 130
231 130 5 0 9 5 9 10 0 6 5 10 11 10 6 0 60 29 120 65 61 36 115 65 120 65 5
0 9 5 9 10 0 6 6 10 14 10 7 0 25 9 38 20 14 10 28 16 32 13 3 -3 6 -2 6 4 0
6 8 13 18 16 9 4 67 35 127 70 110 65 110 65 140 48 17 -9 33 -20 36 -24z"/>
<path d="M8579 8138 c-1 -2 -2 -369 -3 -817 l-1 -813 40 -28 c22 -15 43 -28
48 -29 4 0 17 -7 30 -15 61 -38 149 -86 158 -86 5 0 9 -4 9 -10 0 -5 5 -10 10
-10 6 0 27 -11 48 -23 20 -13 69 -41 107 -62 39 -21 72 -41 75 -44 3 -4 16
-12 30 -19 34 -17 117 -64 160 -90 19 -12 46 -27 60 -34 14 -7 27 -15 30 -18
8 -9 353 -205 367 -208 7 -2 13 -7 13 -11 0 -4 16 -13 35 -21 19 -8 35 -17 35
-20 0 -3 16 -12 35 -20 19 -8 35 -17 35 -21 0 -4 16 -13 35 -20 19 -7 35 -17
35 -21 0 -4 7 -8 15 -8 13 0 15 98 15 819 l0 820 -27 14 c-16 7 -73 40 -128
72 -131 76 -165 95 -195 112 -14 8 -47 28 -75 44 -27 16 -61 35 -75 42 -14 6
-31 17 -38 24 -7 7 -20 13 -28 13 -8 0 -14 5 -14 10 0 6 -6 10 -14 10 -8 0
-21 6 -28 13 -7 6 -31 21 -53 32 -22 11 -42 22 -45 25 -5 5 -17 12 -89 52 -20
11 -40 24 -46 28 -5 4 -35 21 -65 37 -30 17 -95 54 -145 83 -113 66 -172 100
-262 151 -21 12 -47 28 -58 35 -18 13 -33 18 -36 12z"/>
</g>
</svg>
